<?xml version="1.0" standalone="no"?>
<!DOCTYPE svg PUBLIC "-//W3C//DTD SVG 20010904//EN"
 "http://www.w3.org/TR/2001/REC-SVG-20010904/DTD/svg10.dtd">
<svg version="1.0" xmlns="http://www.w3.org/2000/svg"
 width="512.000000pt" height="512.000000pt" viewBox="0 0 512.000000 512.000000"
 preserveAspectRatio="xMidYMid meet">
<metadata>
Created by potrace 1.11, written by Peter Selinger 2001-2013
</metadata>
<g transform="translate(0.000000,512.000000) scale(0.100000,-0.100000)"
fill="#000000" stroke="none">
<path d="M2480 5040 l0 -80 80 0 80 0 0 80 0 80 -80 0 -80 0 0 -80z"/>
<path d="M2152 4947 l-52 -53 55 -54 55 -54 55 54 55 54 -52 53 c-29 29 -55
53 -58 53 -3 0 -29 -24 -58 -53z"/>
<path d="M2852 4947 l-52 -53 55 -54 55 -54 55 54 55 54 -52 53 c-29 29 -55
53 -58 53 -3 0 -29 -24 -58 -53z"/>
<path d="M2510 4778 c-56 -10 -115 -51 -154 -106 -38 -54 -48 -149 -22 -217
19 -50 87 -122 122 -131 l24 -6 0 -304 0 -304 -205 0 -205 0 0 -165 0 -165
-643 0 c-689 0 -689 0 -809 -52 -104 -44 -214 -150 -268 -258 -47 -94 -329
-1013 -340 -1108 -36 -321 148 -626 450 -749 120 -48 182 -55 475 -51 l270 4
85 30 c47 17 93 34 103 38 16 8 17 -25 17 -613 l0 -621 1150 0 1150 0 0 621
c0 588 1 621 18 613 9 -4 55 -21 102 -38 l85 -31 300 0 c287 0 303 1 375 23
346 109 560 426 520 774 -11 95 -293 1014 -340 1109 -53 105 -166 213 -267
257 -122 52 -121 52 -810 52 l-643 0 0 165 0 165 -205 0 -205 0 0 300 0 299
29 15 c42 22 91 75 112 121 22 48 25 142 5 189 -44 105 -160 166 -276 144z
m84 -158 c31 -12 59 -63 50 -93 -12 -41 -45 -67 -84 -67 -64 0 -104 64 -75
120 23 44 62 58 109 40z m296 -1155 l0 -85 -330 0 -330 0 0 85 0 85 330 0 330
0 0 -85z m1551 -282 c72 -35 154 -114 187 -179 11 -22 88 -257 171 -523 167
-535 176 -576 147 -709 -24 -114 -69 -196 -156 -283 -84 -85 -180 -139 -285
-159 -94 -18 -565 -9 -630 13 -27 9 -236 118 -463 242 l-414 225 -438 0 -438
0 -414 -225 c-227 -124 -435 -233 -463 -242 -65 -22 -536 -31 -630 -13 -105
20 -201 74 -285 159 -87 87 -132 169 -156 283 -29 133 -21 172 147 708 83 266
160 502 171 524 24 47 99 129 144 157 18 11 57 29 86 39 51 19 105 19 1853 17
l1800 -2 66 -32z m-1448 -1549 c29 -15 62 -33 74 -42 l23 -14 -26 -49 c-66
-120 -191 -221 -329 -265 -259 -82 -552 33 -679 266 l-27 49 43 24 c104 60 72
56 486 57 l383 0 52 -26z m-1059 -208 c50 -82 168 -197 256 -249 36 -21 101
-50 145 -64 72 -24 94 -27 225 -27 131 0 153 3 225 27 44 14 109 43 145 64 85
49 226 191 265 265 17 32 33 58 37 58 4 0 76 -38 160 -84 l153 -84 3 -339 2
-340 -62 -17 c-202 -56 -370 -228 -411 -421 l-11 -55 -506 0 -506 0 -11 55
c-41 192 -210 365 -411 421 l-62 17 2 340 3 339 150 83 c83 46 154 82 159 81
6 -1 28 -33 50 -70z m-251 -979 c94 -49 185 -163 203 -255 l7 -32 -162 0 -161
0 0 165 0 165 28 -6 c15 -4 53 -20 85 -37z m1867 -122 l0 -165 -161 0 -161 0
6 32 c17 87 99 196 184 245 40 24 106 51 125 53 4 0 7 -74 7 -165z"/>
<path d="M910 2765 l0 -205 -205 0 -205 0 0 -245 0 -245 205 0 205 0 0 -205 0
-205 245 0 245 0 0 205 0 205 205 0 205 0 0 245 0 245 -205 0 -205 0 0 205 0
205 -245 0 -245 0 0 -205z m330 -80 l0 -125 -85 0 -85 0 0 125 0 125 85 0 85
0 0 -125z m-330 -370 l0 -85 -125 0 -125 0 0 85 0 85 125 0 125 0 0 -85z m330
0 l0 -85 -85 0 -85 0 0 85 0 85 85 0 85 0 0 -85z m418 -2 l3 -83 -131 0 -130
0 0 85 0 86 128 -3 127 -3 3 -82z m-418 -373 l0 -130 -85 0 -85 0 0 130 0 130
85 0 85 0 0 -130z"/>
<path d="M3961 2953 c-64 -23 -126 -89 -145 -154 -20 -66 -20 -82 0 -148 51
-172 284 -226 405 -94 48 51 63 92 63 168 0 76 -15 117 -63 168 -61 66 -174
92 -260 60z m144 -168 c53 -52 16 -145 -58 -145 -55 0 -96 52 -83 105 16 64
96 86 141 40z"/>
<path d="M3568 2546 c-128 -35 -204 -172 -167 -303 17 -62 96 -143 155 -161
137 -40 271 32 310 166 52 178 -117 347 -298 298z m123 -175 c37 -38 39 -82 4
-116 -52 -53 -145 -16 -145 57 1 80 85 115 141 59z"/>
<path d="M4407 2549 c-58 -14 -92 -35 -131 -80 -46 -54 -59 -96 -54 -174 12
-193 227 -291 385 -175 107 79 125 246 36 349 -56 66 -155 100 -236 80z m88
-159 c29 -11 58 -69 48 -97 -13 -38 -46 -63 -83 -63 -90 0 -120 117 -40 157
30 15 41 16 75 3z"/>
<path d="M3954 2126 c-91 -40 -148 -127 -148 -226 0 -140 101 -240 242 -240
212 0 321 253 174 405 -20 21 -55 46 -77 56 -48 22 -146 24 -191 5z m154 -172
c49 -55 11 -138 -65 -138 -26 0 -42 7 -59 28 -41 47 -28 107 29 131 39 17 65
11 95 -21z"/>
<path d="M1990 4540 l0 -80 75 0 75 0 0 80 0 80 -75 0 -75 0 0 -80z"/>
<path d="M2980 4540 l0 -80 75 0 75 0 0 80 0 80 -75 0 -75 0 0 -80z"/>
<path d="M2150 4245 l-54 -55 54 -55 54 -55 58 57 58 57 -52 53 c-29 29 -55
53 -58 53 -3 0 -30 -25 -60 -55z"/>
<path d="M2852 4247 l-52 -53 55 -54 55 -54 55 54 55 54 -52 53 c-29 29 -55
53 -58 53 -3 0 -29 -24 -58 -53z"/>
</g>
</svg>
